<svg width="32" height="32" viewBox="0 0 32 32" xmlns="http://www.w3.org/2000/svg">
  <rect width="32" height="32" rx="9" fill="#5865F2"/>
  <path d="M10.2 11.1c1.4-.9 2.8-1 3.8-1l.2.3c-1.2.2-2.2.6-3.1 1.1.9-.4 1.9-.7 3-.8.4 0 .7 0 1.1.1.5 0 1.6.2 2.8.8-.9-.5-2-1-3.2-1.1l.2-.4c1 0 2.4.1 3.8 1 .9.6 1.5 1.9 1.5 1.9v5.2c-.7.8-2.2 1.4-3.7 1.6-1.1.1-2.1.1-3.3 0-1.2-.1-2.5-.4-3.7-1.1-.3-.2-.5-.4-.7-.5l-.2-.2v-6c.1 0 .6-1.2 1.7-1.7zM14 16.9c.6 0 1.1-.5 1.1-1.1 0-.7-.5-1.2-1.1-1.2-.6 0-1.1.5-1.1 1.2 0 .6.5 1.1 1.1 1.1zm4 0c.6 0 1.1-.5 1.1-1.1 0-.7-.5-1.2-1.1-1.2-.6 0-1.1.5-1.1 1.2 0 .6.5 1.1 1.1 1.1z" fill="#EFF3FF"/>
</svg>

