<svg width="32" height="32" viewBox="0 0 32 32" xmlns="http://www.w3.org/2000/svg">
  <rect width="32" height="32" rx="9" fill="#111827"/>
  <g transform="translate(6 6)" fill-rule="evenodd">
    <path d="M7.25 0C6.012 0 5 1.012 5 2.25 5 3.488 6.012 4.5 7.25 4.5h2.25V2.25C9.5 1.012 8.488 0 7.25 0z" fill="#36C5F0"/>
    <path d="M2.25 5C1.012 5 0 6.012 0 7.25 0 8.488 1.012 9.5 2.25 9.5H4.5V7.25C4.5 6.012 3.488 5 2.25 5z" fill="#2EB67D"/>
    <path d="M5 9.5v2.25C5 12.988 6.012 14 7.25 14 8.488 14 9.5 12.988 9.5 11.75V9.5H7.25C6.012 9.5 5 8.488 5 7.25 5 8.488 3.988 9.5 2.75 9.5z" fill="#ECB22E"/>
    <path d="M9.5 4.5H11.75C12.988 4.5 14 3.488 14 2.25 14 1.012 12.988 0 11.75 0 10.512 0 9.5 1.012 9.5 2.25z" fill="#E01E5A"/>
  </g>
</svg>

