<svg width="32" height="32" viewBox="0 0 32 32" xmlns="http://www.w3.org/2000/svg">
  <rect width="32" height="32" rx="8" fill="#22C55E"/>
  <path d="M16 8.2c-3.44 0-6.22 2.73-6.22 6.1 0 1.15.32 2.24.9 3.18L9 23l5.7-1.8c.94.52 2 .8 3.08.8 3.44 0 6.22-2.73 6.22-6.1 0-3.36-2.78-6.1-6.22-6.1zm0 1.9c2.3 0 4.18 1.84 4.18 4.2 0 2.35-1.88 4.19-4.18 4.19-.76 0-1.5-.2-2.14-.57l-.26-.16-2.44.77.8-2.32-.17-.27a4.07 4.07 0 0 1-.7-2.14c0-2.36 1.88-4.2 4.18-4.2zm2.18 2.7c-.12-.26-.24-.26-.35-.27l-.3-.01c-.1 0-.26.03-.4.15-.14.12-.46.44-.46 1.08 0 .64.47 1.27.53 1.35.06.08.9 1.38 2.2 1.88 1.09.43 1.32.34 1.56.32.24-.02.77-.31.88-.6.11-.29.11-.54.08-.6-.03-.06-.12-.1-.26-.17-.14-.07-.83-.41-.96-.46-.13-.05-.23-.07-.33.07-.1.14-.37.46-.45.55-.08.09-.17.1-.31.03-.14-.07-.6-.22-1.15-.7-.43-.38-.72-.84-.8-.99-.08-.15-.01-.23.06-.3.06-.06.14-.17.2-.25.06-.08.08-.14.12-.23.04-.09.02-.17-.01-.23-.03-.06-.27-.7-.38-.95z" fill="#ECFDF5"/>
</svg>

